<?xml version="1.0" encoding="utf-8"?>
<!-- Generator: Adobe Illustrator 18.1.0, SVG Export Plug-In . SVG Version: 6.00 Build 0)  -->
<!DOCTYPE svg PUBLIC "-//W3C//DTD SVG 1.1//EN" "http://www.w3.org/Graphics/SVG/1.1/DTD/svg11.dtd">
<svg version="1.1" id="Layer_1" xmlns="http://www.w3.org/2000/svg" xmlns:xlink="http://www.w3.org/1999/xlink" x="0px" y="0px"
	 viewBox="-328.6589966 273.4989929 70.1230011 69.1859894"
	 style="enable-background:new -328.6589966 273.4989929 70.1230011 69.1859894;" xml:space="preserve">
<path d="M-258.5360107,336.4519958l-8.5469971-8.5469971l-6.8079834-6.8080139
	c3.5019836-4.9259949,5.5820007-10.9299927,5.5820007-17.4219971c0-16.6390076-13.5370178-30.1759949-30.1759949-30.1759949
	c-16.6390076,0-30.1740112,13.5369873-30.1740112,30.1759949c0,16.6380005,13.5350037,30.1740112,30.1740112,30.1740112
	c6.9509888,0,13.3410034-2.3850098,18.446991-6.3480225l11.6999817,11.7000122
	c0.1440125,0.1439819,0.3050232,0.2579956,0.4620056,0.3769836l3.1069946,3.1070251L-258.5360107,336.4519958z
	 M-298.4830017,326.7509766c-12.723999-0.0009766-23.0749817-10.3529968-23.0749817-23.0749817
	c0-12.723999,10.3519897-23.0750122,23.0749817-23.0750122s23.0750122,10.3510132,23.0750122,23.0750122
	c0,5.2939758-1.809021,10.1629944-4.8200073,14.0610046c-0.9949951,1.2869873-2.1130066,2.4749756-3.3540039,3.5269775
	C-287.6059875,324.6779785-292.8039856,326.7509766-298.4830017,326.7509766z"/>
</svg>
